<svg width="236" height="47" viewBox="0 0 236 47" fill="none" xmlns="http://www.w3.org/2000/svg">
<path d="M13.0552 33.5C15.3885 33.5 17.4218 34.865 18.3802 36.88C18.5702 37.2792 18.594 37.7375 18.4461 38.1541C18.2983 38.5707 17.991 38.9116 17.5918 39.1017C17.1927 39.2917 16.7344 39.3155 16.3177 39.1676C15.9011 39.0198 15.5602 38.7125 15.3702 38.3133C15.1642 37.8726 14.8372 37.4995 14.4274 37.2375C14.0175 36.9754 13.5416 36.8353 13.0552 36.8333H5.00016C4.55814 36.8333 4.13421 36.6577 3.82165 36.3452C3.50909 36.0326 3.3335 35.6087 3.3335 35.1667C3.3335 34.7246 3.50909 34.3007 3.82165 33.9882C4.13421 33.6756 4.55814 33.5 5.00016 33.5H13.0552ZM35.0002 33.5C35.4422 33.5 35.8661 33.6756 36.1787 33.9882C36.4912 34.3007 36.6668 34.7246 36.6668 35.1667C36.6668 35.6087 36.4912 36.0326 36.1787 36.3452C35.8661 36.6577 35.4422 36.8333 35.0002 36.8333H26.9452C26.0002 36.8333 25.0535 37.4283 24.6302 38.315C24.4401 38.7142 24.0992 39.0214 23.6826 39.1693C23.266 39.3171 22.8076 39.2934 22.4085 39.1033C22.0093 38.9133 21.702 38.5724 21.5542 38.1558C21.4064 37.7391 21.4301 37.2808 21.6202 36.8817C22.1032 35.8768 22.858 35.0273 23.7992 34.4296C24.7404 33.8319 25.8303 33.5099 26.9452 33.5H35.0002Z" fill="white"/>
<path fill-rule="evenodd" clip-rule="evenodd" d="M14.8148 8.51C15.8122 8.56219 16.7878 8.82081 17.68 9.2695C18.5722 9.71819 19.3616 10.3472 19.9982 11.1167C20.6749 10.2986 21.5238 9.63999 22.4842 9.18769C23.4447 8.73539 24.4932 8.50058 25.5548 8.5H36.6665C37.1085 8.5 37.5325 8.67559 37.845 8.98816C38.1576 9.30072 38.3332 9.72464 38.3332 10.1667V30.1683C38.3332 30.6104 38.1576 31.0343 37.845 31.3468C37.5325 31.6594 37.1085 31.835 36.6665 31.835L25.5548 31.8333C24.4582 31.8333 23.7465 32.1033 23.2682 32.4233C22.802 32.743 22.4284 33.1799 22.1848 33.69C21.8757 34.3231 21.6993 35.0128 21.6665 35.7167V35.7317L21.6582 35.8933C21.6169 36.3045 21.4244 36.6856 21.1179 36.9628C20.8115 37.24 20.413 37.3935 19.9998 37.3935C19.5866 37.3935 19.1882 37.24 18.8817 36.9628C18.5753 36.6856 18.3828 36.3045 18.3415 35.8933L18.3332 35.7233V35.715L18.3265 35.6017C18.2826 34.9354 18.11 34.2839 17.8182 33.6833C17.5813 33.174 17.2131 32.7368 16.7515 32.4167C16.2848 32.1 15.5882 31.8333 14.5132 31.8333H3.33317C2.89114 31.8333 2.46722 31.6577 2.15466 31.3452C1.8421 31.0326 1.6665 30.6087 1.6665 30.1667V10.1667C1.6665 9.72464 1.8421 9.30072 2.15466 8.98816C2.46722 8.67559 2.89114 8.5 3.33317 8.5H14.4448L14.8148 8.51ZM18.3332 11.8333V32.39H21.6665V11.8333H18.3332Z" fill="white"/>
<path d="M50.664 36V10.44H57.972L64.488 29.052L70.968 10.44H78.276V36H72.804V19.44L66.792 35.928H62.112L56.136 19.44V36H50.664ZM83.1132 36V10.44H100.897V15.048H88.5852V20.916H100.465V25.452H88.5852V31.392H101.185V36H83.1132ZM115.516 36.576C113.356 36.576 111.484 36.18 109.9 35.388C108.34 34.596 107.128 33.468 106.264 32.004C105.4 30.516 104.968 28.776 104.968 26.784V10.404H110.44V26.784C110.44 28.44 110.872 29.724 111.736 30.636C112.624 31.524 113.884 31.968 115.516 31.968C117.148 31.968 118.396 31.524 119.26 30.636C120.124 29.724 120.556 28.44 120.556 26.784V10.404H126.028V26.784C126.028 28.776 125.596 30.516 124.732 32.004C123.892 33.468 122.68 34.596 121.096 35.388C119.512 36.18 117.652 36.576 115.516 36.576ZM139.012 36V10.44H148.948C152.116 10.44 154.54 11.004 156.22 12.132C157.9 13.236 158.74 14.988 158.74 17.388C158.74 18.444 158.524 19.368 158.092 20.16C157.66 20.928 157.024 21.54 156.184 21.996C155.368 22.452 154.372 22.728 153.196 22.824V22.752C155.332 22.896 156.964 23.52 158.092 24.624C159.244 25.704 159.82 27.144 159.82 28.944C159.82 31.32 158.98 33.096 157.3 34.272C155.644 35.424 153.268 36 150.172 36H139.012ZM144.484 31.536H149.92C151.24 31.536 152.296 31.272 153.088 30.744C153.904 30.192 154.312 29.376 154.312 28.296C154.312 27.216 153.904 26.4 153.088 25.848C152.296 25.272 151.24 24.984 149.92 24.984H144.484V31.536ZM144.484 21.024H148.804C150.148 21.024 151.216 20.76 152.008 20.232C152.824 19.704 153.232 18.948 153.232 17.964C153.232 16.908 152.836 16.14 152.044 15.66C151.276 15.156 150.196 14.904 148.804 14.904H144.484V21.024ZM164.324 36V10.44H169.796V34.524L166.772 31.392H181.568V36H164.324ZM195.245 36.576C192.653 36.576 190.421 36.036 188.549 34.956C186.701 33.876 185.273 32.34 184.265 30.348C183.281 28.356 182.789 25.992 182.789 23.256C182.789 20.52 183.281 18.156 184.265 16.164C185.273 14.148 186.701 12.6 188.549 11.52C190.421 10.416 192.653 9.864 195.245 9.864C197.837 9.864 200.057 10.416 201.905 11.52C203.777 12.6 205.205 14.148 206.189 16.164C207.197 18.156 207.701 20.52 207.701 23.256C207.701 25.992 207.197 28.356 206.189 30.348C205.205 32.34 203.777 33.876 201.905 34.956C200.057 36.036 197.837 36.576 195.245 36.576ZM195.209 31.968C196.649 31.968 197.873 31.632 198.881 30.96C199.913 30.264 200.693 29.268 201.221 27.972C201.773 26.676 202.049 25.104 202.049 23.256C202.049 21.408 201.773 19.836 201.221 18.54C200.693 17.22 199.913 16.212 198.881 15.516C197.873 14.82 196.649 14.472 195.209 14.472C193.793 14.472 192.581 14.82 191.573 15.516C190.565 16.212 189.785 17.22 189.233 18.54C188.705 19.836 188.441 21.408 188.441 23.256C188.441 25.104 188.705 26.676 189.233 27.972C189.785 29.268 190.565 30.264 191.573 30.96C192.605 31.632 193.817 31.968 195.209 31.968ZM222.547 36.576C220.075 36.576 217.963 36.012 216.211 34.884C214.459 33.756 213.103 32.196 212.143 30.204C211.207 28.188 210.739 25.872 210.739 23.256C210.739 20.688 211.219 18.396 212.179 16.38C213.139 14.364 214.519 12.78 216.319 11.628C218.143 10.452 220.327 9.864 222.871 9.864C225.079 9.864 226.939 10.236 228.451 10.98C229.987 11.7 231.211 12.732 232.123 14.076C233.035 15.42 233.671 17.004 234.031 18.828L228.379 19.08C228.115 17.664 227.551 16.548 226.687 15.732C225.847 14.892 224.587 14.472 222.907 14.472C221.443 14.472 220.219 14.856 219.235 15.624C218.275 16.392 217.555 17.436 217.075 18.756C216.619 20.076 216.391 21.576 216.391 23.256C216.391 24.96 216.619 26.472 217.075 27.792C217.555 29.088 218.275 30.108 219.235 30.852C220.219 31.596 221.479 31.968 223.015 31.968C224.143 31.968 225.115 31.74 225.931 31.284C226.771 30.828 227.419 30.204 227.875 29.412C228.355 28.62 228.643 27.72 228.739 26.712H222.907V22.716H234.103V36H230.719L230.431 30.528L231.079 30.816C230.839 31.944 230.311 32.94 229.495 33.804C228.679 34.668 227.671 35.352 226.471 35.856C225.295 36.336 223.987 36.576 222.547 36.576Z" fill="white"/>
</svg>
