<svg  fill="none" height="26" viewBox="0 0 251 26" width="251" xmlns="http://www.w3.org/2000/svg"><path d="M61.4004 14.6817C62.6218 13.6443 63.24 12.0699 63.24 10.0057C63.24 6.20468 61.0603 4.025 57.2592 4.025H44.855V21.9566H47.8453V7.01538H57.2592C59.4111 7.01538 60.2496 7.85388 60.2496 10.0057C60.2496 12.1576 59.4111 12.9961 57.2592 12.9961H51.1095L59.6207 21.9566H63.4732L57.8603 15.9673C59.3127 15.8753 60.502 15.4432 61.4004 14.6795V14.6817Z" fill="currentColor"></path><path d="M75.3276 3.82391H75.3212C71.4389 3.82391 68.671 5.00466 67.0902 7.32766C65.7897 9.2421 65.6399 11.4795 65.6399 12.9961C65.6399 14.5127 65.7897 16.7501 67.0902 18.6646C68.6688 20.9876 71.4389 22.1662 75.3212 22.1683C75.3234 22.1683 75.3255 22.1683 75.3276 22.1683C79.2121 22.1683 81.9843 20.9918 83.5672 18.671C84.8763 16.7523 85.0282 14.5148 85.0282 12.9961C85.0282 11.4774 84.8763 9.23996 83.5672 7.32124C81.9822 5.00039 79.21 3.82391 75.3255 3.82391H75.3276ZM81.0988 16.9833C80.1063 18.4378 78.164 19.1758 75.3276 19.1758H75.3212C72.4891 19.1758 70.5512 18.4357 69.5629 16.9811C68.7351 15.764 68.6282 14.2111 68.6282 12.994C68.6282 11.7769 68.7351 10.2239 69.5629 9.0068C70.5512 7.55226 72.4891 6.81429 75.3212 6.81215H75.3255C78.1619 6.81215 80.1041 7.55012 81.0966 9.00466C81.9287 10.2261 82.0357 11.7769 82.0357 12.994C82.0357 14.2111 81.9287 15.7619 81.0966 16.9833H81.0988Z" fill="currentColor"></path><path d="M186.239 12.5833C185.229 11.8859 183.856 11.533 182.153 11.533H176.399C173.507 11.533 173.266 10.3587 173.266 9.25919C173.266 8.15973 173.507 6.98539 176.399 6.98539H187.366V4.05705H176.399C174.699 4.05705 173.323 4.40999 172.314 5.10732C171.411 5.73192 170.335 6.95759 170.335 9.25919C170.335 11.5608 171.411 12.7865 172.314 13.4111C173.323 14.1084 174.697 14.4613 176.399 14.4613H182.153C183.234 14.4613 184.07 14.6453 184.573 14.9918C184.881 15.2036 185.287 15.6164 185.287 16.7351C185.287 17.8538 185.045 19.0089 182.153 19.0089H171.073V21.9373H182.153C183.854 21.9373 185.229 21.5843 186.239 20.887C187.142 20.2624 188.218 19.0367 188.218 16.7351C188.218 14.4335 187.142 13.2079 186.239 12.5833Z" fill="currentColor"></path><path d="M133.424 14.4806H144.288V11.4902H133.424V7.00467H146.881V4.0143H130.434V21.9566H146.906V18.9662H133.424V14.4806Z" fill="currentColor"></path><path d="M194.977 14.4806H205.843V11.4902H194.977V7.00467H208.436V4.0143H191.986V21.9566H208.459V18.9662H194.977V14.4806Z" fill="currentColor"></path><path d="M149.571 6.97256H157.047V21.9672H160.04V6.97256H167.516V4.04422H149.571V6.97256Z" fill="currentColor"></path><path d="M250.9 4.04422H232.956V6.97256H240.434V21.9672H243.424V6.97256H250.9V4.04422Z" fill="currentColor"></path><path d="M127.315 4.05492H123.548L115.974 12.9961L123.557 21.9565H127.347L119.88 12.994L127.315 4.05492Z" fill="currentColor"></path><path d="M112.602 4.0143H109.462V21.9566H112.602V4.0143Z" fill="currentColor"></path><path d="M224.632 4.03138H217.456C214.493 4.03138 212.085 6.43994 212.085 9.4025V21.9629H215.052V15.7961H227.056V21.9629H229.984V14.5405C229.995 14.4656 230.004 14.3907 230.004 14.3137V9.4025C230.004 6.43994 227.595 4.03138 224.632 4.03138ZM227.037 12.8292H215.052V9.4025C215.052 8.0763 216.13 6.99823 217.456 6.99823H224.632C225.959 6.99823 227.037 8.0763 227.037 9.4025V12.8292Z" fill="currentColor"></path><path d="M88.0379 9.40678V16.5833C88.0379 19.5458 90.4464 21.9544 93.409 21.9544H105.969V18.9875H93.409C92.0828 18.9875 91.0047 17.9095 91.0047 16.5833V9.40678C91.0047 8.08058 92.0828 7.0025 93.409 7.0025H105.969V4.03566H93.409C90.4464 4.03566 88.0379 6.44422 88.0379 9.40678Z" fill="currentColor"></path><path d="M19.5695 20.0934C12.6112 26.0378 7.67005 26.4571 5.13957 23.9244C2.80802 21.5929 4.74171 15.7448 9.45401 9.96937L0.5 1.01749H6.22192L15.116 9.91161C9.5032 15.5587 6.23048 21.5715 7.92246 23.2635C9.32353 24.6667 13.6358 22.7223 18.2882 18.8121L19.5695 20.0934Z" fill="currentColor"></path><path d="M35.8925 24.9747H30.1706L21.2764 16.0806C26.8893 10.4357 30.162 4.4207 28.4722 2.73086C27.0711 1.32765 22.7545 3.27417 18.1021 7.18434L16.8208 5.90305C23.7812 -0.0434735 28.7246 -0.464862 31.255 2.06776C33.5866 4.39931 31.655 10.2474 26.9406 16.0228L35.8946 24.9747H35.8925Z" fill="currentColor"></path></svg>